<?xml version="1.0" encoding="UTF-8" standalone="no"?>
<svg
   xmlns:dc="http://purl.org/dc/elements/1.1/"
   xmlns:cc="http://creativecommons.org/ns#"
   xmlns:rdf="http://www.w3.org/1999/02/22-rdf-syntax-ns#"
   xmlns:svg="http://www.w3.org/2000/svg"
   xmlns="http://www.w3.org/2000/svg"
   xmlns:sodipodi="http://sodipodi.sourceforge.net/DTD/sodipodi-0.dtd"
   xmlns:inkscape="http://www.inkscape.org/namespaces/inkscape"
   width="24"
   height="24"
   viewBox="0 0 24 24"
   version="1.1"
   id="svg26"
   sodipodi:docname="suntimes-calendar1.svg"
   inkscape:version="0.92.3 (2405546, 2018-03-11)"
   inkscape:export-filename="C:\Users\Forrest\Documents\GitHub\SuntimesCalendars\app\src\main\artwork\suntimes-calendar31.png"
   inkscape:export-xdpi="2048"
   inkscape:export-ydpi="2048">
  <metadata
     id="metadata32">
    <rdf:RDF>
      <cc:Work
         rdf:about="">
        <dc:format>image/svg+xml</dc:format>
        <dc:type
           rdf:resource="http://purl.org/dc/dcmitype/StillImage" />
        <dc:title />
      </cc:Work>
    </rdf:RDF>
  </metadata>
  <defs
     id="defs30" />
  <sodipodi:namedview
     pagecolor="#ffffff"
     bordercolor="#666666"
     borderopacity="1"
     objecttolerance="10"
     gridtolerance="10"
     guidetolerance="10"
     inkscape:pageopacity="0"
     inkscape:pageshadow="2"
     inkscape:window-width="1920"
     inkscape:window-height="1137"
     id="namedview28"
     showgrid="false"
     inkscape:zoom="10.28125"
     inkscape:cx="6.9475205"
     inkscape:cy="-0.50612925"
     inkscape:window-x="1272"
     inkscape:window-y="-8"
     inkscape:window-maximized="1"
     inkscape:current-layer="svg26" />
  <path
     style="fill:#ffffff;fill-opacity:0.50196078"
     d="m 3.7,0.1001186 v 2 h -3 V 22.100119 h 10.150391 a 8,8 0 0 1 -1.658204,-2 H 2.7 V 7.1001186 h 16 v 1.3964843 a 8,8 0 0 1 2,1.03125 V 2.1001186 h -3 v -2 h -2 v 2 h -10 v -2 z"
     id="path24-1"
     inkscape:connector-curvature="0" />
  <path
     fill="none"
     d="M0 0h24v24H0V0z"
     id="path22" />
  <g
     id="g989">
    <path
       d="m 8.1019103,15.510753 a 8,8 0 0 1 8.3859207,-7.4505404 8,8 0 0 1 7.591365,8.2586564 8,8 0 0 1 -8.129027,7.730015 8,8 0 0 1 -7.8664534,-7.99707"
       sodipodi:open="true"
       sodipodi:end="3.1413658"
       sodipodi:start="3.2090496"
       sodipodi:ry="8"
       sodipodi:rx="8"
       sodipodi:cy="16.049999"
       sodipodi:cx="16.083715"
       sodipodi:type="arc"
       id="path906"
       style="fill:#ffffff;fill-opacity:0.29411765;stroke:none;stroke-width:2.14228749;stroke-linecap:square;stroke-linejoin:round;stroke-miterlimit:4;stroke-dasharray:17.1382936, 2.1422867;stroke-dashoffset:0;stroke-opacity:0.3372549;paint-order:normal" />
    <path
       id="path3797-9"
       d="m 9.3054573,16.73395 a 6.8018992,6.881234 0 0 0 6.7605377,6.117369 6.8018992,6.881234 0 0 0 6.744186,-6.117369 z"
       style="display:inline;fill:#ffffff;fill-opacity:0.57254905;fill-rule:evenodd;stroke:none;stroke-width:1.16279066;stroke-linecap:square;stroke-linejoin:miter;stroke-miterlimit:4;stroke-dasharray:none;stroke-opacity:1"
       inkscape:connector-curvature="0" />
    <path
       id="path3797-8-2-6"
       d="M 16.075401,9.3202842 A 6.8018992,6.881234 0 0 0 9.320315,15.390414 H 22.814137 A 6.8018992,6.881234 0 0 0 16.075401,9.3202842 Z"
       style="display:inline;fill:#ffffff;fill-opacity:0.98039216;fill-rule:evenodd;stroke:none;stroke-width:1.16279066;stroke-linecap:square;stroke-linejoin:miter;stroke-miterlimit:4;stroke-dasharray:none;stroke-opacity:1"
       inkscape:connector-curvature="0" />
  </g>
</svg>
